<svg width="141" height="35" viewBox="0 0 141 35" fill="none" xmlns="http://www.w3.org/2000/svg">
<path fill-rule="evenodd" clip-rule="evenodd" d="M54.6999 22.4963C54.6999 22.301 54.3879 22.228 54.2801 22.3909C53.4124 23.7017 51.9608 24.3709 50.297 24.3709C47.3387 24.3709 44.541 22.2382 44.541 18.5003C44.541 14.9458 47.0635 12.4462 50.6639 12.4462C54.2184 12.4462 56.695 14.877 56.695 18.5003V23.8944C56.695 23.9929 56.6152 24.0728 56.5167 24.0728H54.8783C54.7798 24.0728 54.6999 23.9929 54.6999 23.8944V22.4963ZM46.7425 18.4086C46.7425 20.7018 48.3019 22.3529 50.641 22.3529C52.98 22.3529 54.5394 20.7018 54.5394 18.4086C54.5394 16.1154 52.98 14.4643 50.641 14.4643C48.3019 14.4643 46.7425 16.1154 46.7425 18.4086ZM60.7861 28.7331C60.7861 28.8316 60.7062 28.9115 60.6077 28.9115H58.7859C58.6874 28.9115 58.6075 28.8316 58.6075 28.7331V18.5003C58.6075 14.8082 61.1301 12.4462 64.6387 12.4462C68.239 12.4462 70.7615 14.9229 70.7615 18.4774C70.7615 22.2382 67.9638 24.3709 65.0056 24.3709C63.4218 24.3709 62.0431 23.7556 61.1646 22.6431C61.0508 22.499 60.7861 22.5751 60.7861 22.7587V28.7331ZM60.7861 18.4086C60.7861 20.7018 62.3455 22.3529 64.6616 22.3529C67.0007 22.3529 68.5601 20.7018 68.5601 18.4086C68.5601 16.1154 67.0007 14.4643 64.6616 14.4643C62.3455 14.4643 60.7861 16.1154 60.7861 18.4086ZM74.5086 28.7331C74.5086 28.8316 74.4288 28.9115 74.3302 28.9115H72.5084C72.4099 28.9115 72.3301 28.8316 72.3301 28.7331V18.5003C72.3301 14.8082 74.8526 12.4462 78.3612 12.4462C81.9615 12.4462 84.4841 14.9229 84.4841 18.4774C84.4841 22.2382 81.6864 24.3709 78.7281 24.3709C77.1443 24.3709 75.7656 23.7556 74.8871 22.6431C74.7733 22.499 74.5086 22.5751 74.5086 22.7587V28.7331ZM74.5086 18.4086C74.5086 20.7018 76.068 22.3529 78.3841 22.3529C80.7232 22.3529 82.2826 20.7018 82.2826 18.4086C82.2826 16.1154 80.7232 14.4643 78.3841 14.4643C76.068 14.4643 74.5086 16.1154 74.5086 18.4086ZM88.4146 23.8944C88.4146 23.9929 88.3347 24.0728 88.2362 24.0728H86.4144C86.3159 24.0728 86.2361 23.9929 86.2361 23.8944V7.96939C86.2361 7.87088 86.3159 7.79102 86.4144 7.79102H88.2362C88.3347 7.79102 88.4146 7.87088 88.4146 7.96939V23.8944ZM100.42 22.4963C100.42 22.301 100.108 22.228 100 22.3909C99.1324 23.7017 97.6808 24.3709 96.017 24.3709C93.0587 24.3709 90.261 22.2382 90.261 18.5003C90.261 14.9458 92.7835 12.4462 96.3839 12.4462C99.9383 12.4462 102.415 14.877 102.415 18.5003V23.8944C102.415 23.9929 102.335 24.0728 102.237 24.0728H100.598C100.5 24.0728 100.42 23.9929 100.42 23.8944V22.4963ZM92.4625 18.4086C92.4625 20.7018 94.0219 22.3529 96.3609 22.3529C98.7 22.3529 100.259 20.7018 100.259 18.4086C100.259 16.1154 98.7 14.4643 96.3609 14.4643C94.0219 14.4643 92.4625 16.1154 92.4625 18.4086ZM115.404 18.6608C115.404 22.4217 113.156 24.3709 109.808 24.3709C106.46 24.3709 104.213 22.4446 104.213 18.6608V12.9227C104.213 12.8242 104.293 12.7444 104.391 12.7444H106.213C106.312 12.7444 106.391 12.8242 106.391 12.9227V18.6608C106.391 21.1146 107.744 22.3529 109.808 22.3529C111.872 22.3529 113.225 21.1146 113.225 18.6608V12.9227C113.225 12.8242 113.305 12.7444 113.404 12.7444H115.225C115.324 12.7444 115.404 12.8242 115.404 12.9227V18.6608ZM126.639 20.5871C126.639 22.8803 124.782 24.3709 121.938 24.3709C119.18 24.3709 117.414 22.9468 117.248 20.9777C117.239 20.8772 117.32 20.7935 117.421 20.7935H119.268C119.364 20.7935 119.441 20.8685 119.456 20.9624C119.593 21.8124 120.452 22.3988 121.938 22.3988C123.589 22.3988 124.438 21.6879 124.438 20.7935C124.438 19.7315 123.28 19.5824 121.886 19.4027L121.823 19.3947C119.851 19.1424 117.466 18.7755 117.466 16.1842C117.466 13.9598 119.209 12.4462 121.915 12.4462C124.536 12.4462 126.189 13.8877 126.332 15.7495C126.339 15.8494 126.258 15.9319 126.158 15.9319H124.35C124.257 15.9319 124.181 15.86 124.163 15.7686C124.012 14.9814 123.226 14.4184 121.938 14.4184C120.493 14.4184 119.668 15.1064 119.668 16.0007C119.668 17.0395 120.775 17.1836 122.108 17.357C122.158 17.3635 122.208 17.37 122.259 17.3766C124.231 17.6289 126.639 17.9958 126.639 20.5871ZM139.413 20.9082C139.54 20.9082 139.626 21.0373 139.572 21.1522C138.646 23.1217 136.642 24.3709 134.108 24.3709C130.53 24.3709 128.008 21.8484 128.008 18.4086C128.008 14.9688 130.53 12.4462 134.108 12.4462C137.685 12.4462 140.162 14.9688 140.162 18.4086V19.0328C140.162 19.1313 140.082 19.2112 139.983 19.2112H130.51C130.4 19.2112 130.316 19.3095 130.338 19.417C130.727 21.3055 132.203 22.3529 134.108 22.3529C135.536 22.3529 136.552 21.9185 137.218 20.9862C137.253 20.9379 137.308 20.9082 137.367 20.9082H139.413ZM134.108 14.4643C132.305 14.4643 130.925 15.391 130.429 17.0426C130.396 17.1533 130.481 17.262 130.597 17.262H137.642C137.757 17.262 137.843 17.1537 137.809 17.0431C137.31 15.3711 135.867 14.4643 134.108 14.4643Z" fill="#222831"/>
<mask id="mask0_30890_10074" style="mask-type:alpha" maskUnits="userSpaceOnUse" x="16" y="4" width="24" height="32">
<path d="M29.4623 28.2441L26.0349 30.2026L22.9013 35.0009C27.5364 34.6092 36.8654 33.8063 37.1004 33.7279C37.3354 33.6496 38.961 25.7307 39.7444 21.7811L36.8067 10.8135L32.9876 4.74219L20.747 5.42766L16.1445 8.3654L18.4947 10.8135L22.2159 13.1637L23.0972 11.5969L24.664 10.0301L26.8183 10.3239L28.4831 15.2201L31.3229 18.8434L31.9104 24.3271L29.4623 28.2441Z" fill="#C4C4C4"/>
</mask>
<g mask="url(#mask0_30890_10074)">
<mask id="path-3-outside-1_30890_10074" maskUnits="userSpaceOnUse" x="9.62059" y="1.56639" width="32.5682" height="31.6816" fill="black">
<rect fill="white" x="9.62059" y="1.56639" width="32.5682" height="31.6816"/>
<path fill-rule="evenodd" clip-rule="evenodd" d="M17.0216 13.5426C16.5563 13.2047 16.4529 12.5536 16.7908 12.0882C17.1287 11.6229 17.7799 11.5195 18.2452 11.8574L23.6744 15.7994L23.6774 15.8017L23.6898 15.811L24.6836 16.5326C24.9342 16.7145 25.2848 16.6589 25.4668 16.4083C25.638 16.1724 25.5988 15.8479 25.3846 15.6589L25.3883 15.6569L20.6766 12.2358C20.2112 11.8979 20.1079 11.2468 20.4458 10.7814C20.7837 10.3161 21.4348 10.2127 21.9002 10.5506L27.8468 14.8683C27.9044 14.8935 28.1665 14.8915 28.0568 14.657C26.9225 12.6286 27.4267 11.3648 27.7095 10.8085C28.0141 10.2095 28.7128 9.80102 29.1725 9.87066C29.3124 9.89184 29.463 10.0343 29.4799 10.1453C29.8089 12.3101 30.6106 14.4484 32.4061 16.1489C32.5869 16.3201 32.7183 16.4716 32.8066 16.6053C34.8651 18.7536 35.0638 22.2763 33.1291 24.9409C31.022 27.8431 27.1634 28.6539 24.4054 26.8167C24.3979 26.8149 24.3906 26.8116 24.3839 26.8068L24.2527 26.7115L24.2106 26.6812L24.1688 26.6506L22.3105 25.3013C22.3029 25.2961 22.2953 25.2907 22.2878 25.2853L16.0654 20.7674C15.6001 20.4295 15.4967 19.7783 15.8346 19.313C16.1725 18.8476 16.8237 18.7443 17.289 19.0822L21.7907 22.3507C21.7907 22.3507 21.7907 22.3506 21.7907 22.3506L21.8693 22.4077C22.1199 22.5896 22.4705 22.534 22.6525 22.2834C22.8344 22.0328 22.7788 21.6822 22.5282 21.5003L21.3183 20.6218C21.314 20.6186 21.3096 20.6155 21.3052 20.6125L15.8738 16.6689C15.4084 16.331 15.3051 15.6799 15.643 15.2145C15.9808 14.7492 16.632 14.6458 17.0974 14.9837L22.1058 18.6202L22.1098 18.6231L22.6715 19.031C22.9221 19.2129 23.2727 19.1573 23.4547 18.9067C23.6366 18.6561 23.581 18.3055 23.3304 18.1236L22.9662 17.8591L22.9663 17.8589L17.0216 13.5426Z"/>
</mask>
<path d="M17.0216 13.5426L15.9503 15.0181L17.0216 13.5426ZM23.6744 15.7994L24.7902 14.3573L24.7682 14.3403L24.7457 14.3239L23.6744 15.7994ZM23.6774 15.8017L22.5616 17.2438L22.5738 17.2533L22.5862 17.2625L23.6774 15.8017ZM23.6898 15.811L22.5986 17.2718L22.6085 17.2792L22.6185 17.2864L23.6898 15.811ZM25.3846 15.6589L24.5173 14.0551L22.2199 15.2975L24.178 17.0259L25.3846 15.6589ZM25.3883 15.6569L26.2557 17.2607L28.8032 15.883L26.4596 14.1814L25.3883 15.6569ZM21.9002 10.5506L20.8289 12.0261L21.9002 10.5506ZM27.8468 14.8683L26.7755 16.3437L26.9346 16.4593L27.1147 16.5382L27.8468 14.8683ZM28.0568 14.657L29.7084 13.8844L29.6804 13.8247L29.6482 13.7671L28.0568 14.657ZM27.7095 10.8085L26.0842 9.98205L26.0842 9.98205L27.7095 10.8085ZM29.1725 9.87066L28.8994 11.6735L28.8995 11.6735L29.1725 9.87066ZM29.4799 10.1453L31.2825 9.87137L31.2825 9.87136L29.4799 10.1453ZM32.4061 16.1489L31.1523 17.4727L31.1523 17.4727L32.4061 16.1489ZM32.8066 16.6053L31.2852 17.6102L31.376 17.7477L31.49 17.8667L32.8066 16.6053ZM24.4054 26.8167L25.4163 25.2992L25.1487 25.121L24.8364 25.0451L24.4054 26.8167ZM24.2527 26.7115L25.324 25.236L25.3175 25.2314L24.2527 26.7115ZM24.2106 26.6812L23.1329 28.152L23.1393 28.1567L23.1459 28.1614L24.2106 26.6812ZM24.1688 26.6506L25.2466 25.1798L25.2401 25.1751L24.1688 26.6506ZM22.3105 25.3013L23.3818 23.8258L23.3624 23.8118L23.3427 23.7983L22.3105 25.3013ZM22.2878 25.2853L21.2165 26.7607L22.2878 25.2853ZM16.0654 20.7674L17.1367 19.2919L16.0654 20.7674ZM21.7907 22.3507L20.7194 23.8262L23.9981 26.2068L23.6055 22.174L21.7907 22.3507ZM21.7907 22.3506L22.862 20.8751L19.5833 18.4945L19.9759 22.5273L21.7907 22.3506ZM21.8693 22.4077L20.7981 23.8831L21.8693 22.4077ZM21.3052 20.6125L20.2339 22.088L20.2546 22.103L20.2758 22.1175L21.3052 20.6125ZM15.8738 16.6689L16.9451 15.1935L15.8738 16.6689ZM17.0974 14.9837L18.1686 13.5083L18.1686 13.5083L17.0974 14.9837ZM22.1058 18.6202L23.1834 17.1494L23.1771 17.1448L22.1058 18.6202ZM22.1098 18.6231L21.0322 20.094L21.0385 20.0986L22.1098 18.6231ZM23.3304 18.1236L22.2591 19.599L23.3304 18.1236ZM22.9662 17.8591L21.4561 16.8372L20.4674 18.2981L21.8949 19.3346L22.9662 17.8591ZM22.9663 17.8589L24.4764 18.8808L25.465 17.4199L24.0376 16.3835L22.9663 17.8589ZM15.3154 11.0169C14.3858 12.2972 14.6701 14.0885 15.9503 15.0181L18.0929 12.0672C18.4424 12.3209 18.5201 12.81 18.2663 13.1595L15.3154 11.0169ZM19.3165 10.382C18.0363 9.45242 16.2449 9.73671 15.3154 11.0169L18.2663 13.1595C18.0125 13.509 17.5234 13.5866 17.1739 13.3329L19.3165 10.382ZM24.7457 14.3239L19.3165 10.382L17.1739 13.3329L22.6031 17.2748L24.7457 14.3239ZM24.7932 14.3596L24.7902 14.3573L22.5586 17.2415L22.5616 17.2438L24.7932 14.3596ZM24.781 14.3502L24.7685 14.3409L22.5862 17.2625L22.5986 17.2718L24.781 14.3502ZM25.7549 15.0571L24.7611 14.3355L22.6185 17.2864L23.6123 18.008L25.7549 15.0571ZM23.9913 15.337C24.401 14.7727 25.1906 14.6474 25.7549 15.0571L23.6123 18.008C24.6778 18.7816 26.1686 18.545 26.9422 17.4796L23.9913 15.337ZM24.178 17.0259C23.6943 16.5989 23.605 15.869 23.9913 15.337L26.9422 17.4796C27.671 16.4759 27.5033 15.097 26.5912 14.2919L24.178 17.0259ZM24.521 14.0531L24.5173 14.0551L26.252 17.2628L26.2557 17.2607L24.521 14.0531ZM19.6053 13.7113L24.3171 17.1324L26.4596 14.1814L21.7479 10.7604L19.6053 13.7113ZM18.9703 9.71013C18.0408 10.9904 18.3251 12.7817 19.6053 13.7113L21.7479 10.7604C22.0974 11.0141 22.175 11.5032 21.9212 11.8527L18.9703 9.71013ZM22.9715 9.07515C21.6912 8.1456 19.8999 8.4299 18.9703 9.71013L21.9212 11.8527C21.6675 12.2022 21.1784 12.2798 20.8289 12.0261L22.9715 9.07515ZM28.9181 13.3928L22.9715 9.07515L20.8289 12.0261L26.7755 16.3437L28.9181 13.3928ZM26.4052 15.4296C26.3285 15.2656 26.1627 14.8204 26.3351 14.258C26.5213 13.6507 26.967 13.3325 27.2637 13.1985C27.5352 13.0758 27.7705 13.0569 27.9013 13.0556C27.989 13.0548 28.256 13.0568 28.5789 13.1983L27.1147 16.5382C27.4664 16.6924 27.7877 16.7037 27.9374 16.7022C28.13 16.7003 28.4348 16.671 28.7654 16.5216C29.1211 16.3609 29.6153 15.9999 29.8216 15.327C30.0141 14.6991 29.84 14.1657 29.7084 13.8844L26.4052 15.4296ZM26.0842 9.98205C25.8759 10.3918 25.5601 11.1186 25.5292 12.1248C25.4983 13.1337 25.7573 14.2807 26.4654 15.5469L29.6482 13.7671C29.222 13.0049 29.166 12.5058 29.1742 12.2366C29.1826 11.9648 29.2603 11.7815 29.3348 11.635L26.0842 9.98205ZM29.4456 8.06786C28.6234 7.94333 27.8888 8.24846 27.4189 8.54111C26.9071 8.85986 26.4074 9.34654 26.0842 9.98205L29.3348 11.635C29.3223 11.6596 29.3154 11.6642 29.3231 11.6561C29.3308 11.6481 29.3406 11.6404 29.3468 11.6365C29.355 11.6314 29.3376 11.6445 29.2855 11.6591C29.2406 11.6717 29.1029 11.7043 28.8994 11.6735L29.4456 8.06786ZM31.2825 9.87136C31.185 9.22947 30.8059 8.81372 30.6001 8.62633C30.3637 8.41099 29.9727 8.1477 29.4456 8.06786L28.8995 11.6735C28.5121 11.6148 28.2664 11.4333 28.1445 11.3223C28.0696 11.2541 27.9854 11.1618 27.9069 11.0387C27.835 10.9259 27.7222 10.7156 27.6772 10.4193L31.2825 9.87136ZM33.6599 14.825C32.2493 13.4891 31.5723 11.7779 31.2825 9.87137L27.6772 10.4193C28.0455 12.8424 28.9719 15.4078 31.1523 17.4727L33.6599 14.825ZM34.328 15.6003C34.1375 15.3119 33.9015 15.0539 33.6599 14.825L31.1523 17.4727C31.2088 17.5263 31.2461 17.5659 31.2689 17.592C31.2923 17.6187 31.2947 17.6246 31.2852 17.6102L34.328 15.6003ZM34.6046 26.0122C37.012 22.6965 36.8438 18.1832 34.1232 15.3438L31.49 17.8667C32.8863 19.324 33.1157 21.8561 31.6537 23.8696L34.6046 26.0122ZM23.3946 28.3342C27.0572 30.774 31.9886 29.6151 34.6046 26.0122L31.6537 23.8696C30.0553 26.071 27.2696 26.5337 25.4163 25.2992L23.3946 28.3342ZM23.3127 28.2822C23.5147 28.429 23.7402 28.5314 23.9744 28.5884L24.8364 25.0451C25.0556 25.0984 25.2665 25.1943 25.4552 25.3313L23.3127 28.2822ZM23.1815 28.187L23.3127 28.2822L25.4552 25.3313L25.324 25.2361L23.1815 28.187ZM23.1459 28.1614L23.188 28.1917L25.3175 25.2314L25.2754 25.2011L23.1459 28.1614ZM23.091 28.1213L23.1329 28.152L25.2884 25.2105L25.2466 25.1798L23.091 28.1213ZM21.2392 26.7768L23.0975 28.126L25.2401 25.1751L23.3818 23.8258L21.2392 26.7768ZM21.2165 26.7607C21.2369 26.7755 21.2575 26.7901 21.2783 26.8043L23.3427 23.7983C23.3482 23.8021 23.3537 23.8059 23.3591 23.8098L21.2165 26.7607ZM14.9942 22.2428L21.2165 26.7607L23.3591 23.8098L17.1367 19.2919L14.9942 22.2428ZM14.3592 18.2417C13.4296 19.5219 13.7139 21.3133 14.9942 22.2428L17.1367 19.2919C17.4863 19.5457 17.5639 20.0348 17.3101 20.3843L14.3592 18.2417ZM18.3603 17.6067C17.0801 16.6772 15.2887 16.9615 14.3592 18.2417L17.3101 20.3843C17.0563 20.7338 16.5673 20.8114 16.2177 20.5576L18.3603 17.6067ZM22.862 20.8753L18.3603 17.6067L16.2177 20.5576L20.7194 23.8262L22.862 20.8753ZM19.9759 22.5273L19.9759 22.5274L23.6055 22.174L23.6055 22.1739L19.9759 22.5273ZM22.9406 20.9322L22.862 20.8751L20.7194 23.826L20.7981 23.8831L22.9406 20.9322ZM21.177 21.2121C21.5867 20.6478 22.3763 20.5225 22.9406 20.9322L20.7981 23.8831C21.8635 24.6567 23.3543 24.4201 24.1279 23.3547L21.177 21.2121ZM21.4569 22.9757C20.8926 22.566 20.7673 21.7764 21.177 21.2121L24.1279 23.3547C24.9015 22.2892 24.6649 20.7984 23.5995 20.0248L21.4569 22.9757ZM20.247 22.0972L21.4569 22.9757L23.5995 20.0248L22.3896 19.1463L20.247 22.0972ZM20.2758 22.1175C20.2661 22.1109 20.2565 22.1041 20.247 22.0972L22.3896 19.1463C22.3714 19.1331 22.353 19.1201 22.3345 19.1075L20.2758 22.1175ZM14.8025 18.1444L20.2339 22.088L22.3764 19.1371L16.9451 15.1935L14.8025 18.1444ZM14.1675 14.1432C13.238 15.4235 13.5222 17.2148 14.8025 18.1444L16.9451 15.1935C17.2946 15.4472 17.3722 15.9363 17.1184 16.2858L14.1675 14.1432ZM18.1686 13.5083C16.8884 12.5787 15.097 12.863 14.1675 14.1432L17.1184 16.2858C16.8646 16.6353 16.3756 16.7129 16.0261 16.4592L18.1686 13.5083ZM23.1771 17.1448L18.1686 13.5083L16.0261 16.4592L21.0345 20.0957L23.1771 17.1448ZM23.1874 17.1523L23.1834 17.1494L21.0282 20.0911L21.0322 20.094L23.1874 17.1523ZM23.7428 17.5555L23.1811 17.1477L21.0385 20.0986L21.6002 20.5064L23.7428 17.5555ZM21.9792 17.8354C22.3889 17.2711 23.1785 17.1458 23.7428 17.5555L21.6002 20.5064C22.6657 21.28 24.1565 21.0434 24.9301 19.978L21.9792 17.8354ZM22.2591 19.599C21.6948 19.1893 21.5695 18.3997 21.9792 17.8354L24.9301 19.978C25.7037 18.9125 25.4671 17.4217 24.4017 16.6481L22.2591 19.599ZM21.8949 19.3346L22.2591 19.599L24.4017 16.6481L24.0375 16.3837L21.8949 19.3346ZM21.4562 16.837L21.4561 16.8372L24.4762 18.881L24.4764 18.8808L21.4562 16.837ZM15.9503 15.0181L21.895 19.3344L24.0376 16.3835L18.0929 12.0672L15.9503 15.0181Z" fill="#222831" mask="url(#path-3-outside-1_30890_10074)"/>
</g>
<mask id="path-5-outside-2_30890_10074" maskUnits="userSpaceOnUse" x="5.71335" y="2.93169" width="33.3812" height="32.2886" fill="black">
<rect fill="white" x="5.71335" y="2.93169" width="33.3812" height="32.2886"/>
<path fill-rule="evenodd" clip-rule="evenodd" d="M13.2245 14.7991C12.7499 14.4529 12.6459 13.7876 12.9921 13.3131C13.3383 12.8386 14.0036 12.7345 14.4781 13.0807L20.0224 17.1254L20.03 17.131L21.0434 17.8703C21.2989 18.0567 21.6572 18.0007 21.8436 17.7452C22.0189 17.5048 21.9798 17.1735 21.7618 16.9799L21.7642 16.9786L21.7312 16.9546L21.7184 16.945L20.705 16.2057L20.6919 16.1964L16.9597 13.4737C16.4852 13.1275 16.3811 12.4622 16.7273 11.9876C17.0735 11.5131 17.7388 11.4091 18.2134 11.7552L24.2718 16.175L24.2719 16.1749C24.3135 16.2034 24.5996 16.2122 24.4984 15.975C23.3366 13.8941 23.8558 12.6009 24.1465 12.0324C24.459 11.4212 25.1735 11.0056 25.6429 11.0778C25.7857 11.0998 25.9392 11.2456 25.9562 11.3591C26.2873 13.5709 27.1012 15.7568 28.9311 17.4977C29.1127 17.6705 29.2454 17.8236 29.3353 17.9588C31.4372 20.1574 31.6339 23.7592 29.6502 26.4784C27.492 29.4368 23.5508 30.2565 20.7383 28.376C20.7303 28.3743 20.7226 28.3709 20.7156 28.3658L18.5842 26.8108L18.5762 26.8051L12.2312 22.1763C11.7567 21.8301 11.6526 21.1648 11.9988 20.6902C12.345 20.2157 13.0103 20.1116 13.4848 20.4578L18.0753 23.8066C18.0753 23.8066 18.0753 23.8066 18.0753 23.8066L18.1555 23.8651C18.411 24.0515 18.7692 23.9955 18.9556 23.74C19.142 23.4844 19.086 23.1262 18.8305 22.9398L17.5968 22.0397C17.5947 22.0382 17.5926 22.0367 17.5905 22.0352L12.0449 17.9896C11.5703 17.6434 11.4663 16.9781 11.8125 16.5036C12.1587 16.029 12.824 15.925 13.2985 16.2712L18.4024 19.9945L18.4098 20L18.9826 20.4179C19.2381 20.6043 19.5963 20.5483 19.7827 20.2928C19.9691 20.0372 19.9131 19.679 19.6576 19.4926L19.2863 19.2217L19.2864 19.2214L13.2245 14.7991Z"/>
</mask>
<path d="M20.0224 17.1254L21.1089 15.661L21.103 15.6567L21.097 15.6523L20.0224 17.1254ZM20.03 17.131L18.9435 18.5953L18.9494 18.5997L18.9554 18.604L20.03 17.131ZM21.7618 16.9799L20.8979 15.3742L18.6001 16.6104L20.5509 18.3431L21.7618 16.9799ZM21.7642 16.9786L22.628 18.5844L25.1783 17.2123L22.8388 15.5056L21.7642 16.9786ZM21.7312 16.9546L20.6365 18.4128L20.6465 18.4203L20.6566 18.4276L21.7312 16.9546ZM21.7184 16.945L22.8131 15.4868L22.8031 15.4793L22.7931 15.472L21.7184 16.945ZM20.705 16.2057L21.7796 14.7326L21.7695 14.7253L21.7593 14.718L20.705 16.2057ZM20.6919 16.1964L19.6173 17.6695L19.6274 17.6768L19.6376 17.684L20.6919 16.1964ZM18.2134 11.7552L19.288 10.2822L18.2134 11.7552ZM24.2718 16.175L23.1972 17.6481L24.6703 18.7227L25.7449 17.2497L24.2718 16.175ZM24.2719 16.1749L25.3029 14.671L23.8425 13.6698L22.7989 15.1003L24.2719 16.1749ZM24.4984 15.975L26.1758 15.26L26.1377 15.1708L26.0904 15.0861L24.4984 15.975ZM24.1465 12.0324L25.7699 12.8625L25.7699 12.8625L24.1465 12.0324ZM25.6429 11.0778L25.3658 12.88L25.3658 12.88L25.6429 11.0778ZM25.9562 11.3591L27.7595 11.0892L27.7595 11.0892L25.9562 11.3591ZM28.9311 17.4977L27.6744 18.8188L27.6744 18.8188L28.9311 17.4977ZM29.3353 17.9588L27.8163 18.9676L27.9057 19.1021L28.0173 19.2189L29.3353 17.9588ZM20.7383 28.376L21.7517 26.8603L21.4691 26.6713L21.1374 26.5969L20.7383 28.376ZM20.7156 28.3658L21.7902 26.8927L20.7156 28.3658ZM18.5842 26.8108L19.6588 25.3378L19.6521 25.3329L18.5842 26.8108ZM18.5762 26.8051L17.5016 28.2781L17.5083 28.283L18.5762 26.8051ZM12.2312 22.1763L11.1566 23.6493L12.2312 22.1763ZM18.0753 23.8066L17.0006 25.2797L20.3082 27.6926L19.889 23.62L18.0753 23.8066ZM18.0753 23.8066L19.1499 22.3336L15.8424 19.9207L16.2615 23.9932L18.0753 23.8066ZM18.1555 23.8651L19.2301 22.3921L18.1555 23.8651ZM17.5905 22.0352L16.5159 23.5083L16.5256 23.5154L16.5354 23.5224L17.5905 22.0352ZM12.0449 17.9896L10.9703 19.4626L12.0449 17.9896ZM13.2985 16.2712L12.2239 17.7442L13.2985 16.2712ZM18.4024 19.9945L19.4885 18.53L19.4828 18.5257L19.477 18.5215L18.4024 19.9945ZM18.4098 20L17.3236 21.4645L17.3293 21.4688L17.3351 21.4731L18.4098 20ZM18.9826 20.4179L20.0572 18.9449L18.9826 20.4179ZM19.6576 19.4926L20.7322 18.0195L19.6576 19.4926ZM19.2863 19.2217L17.7786 18.1962L16.7864 19.655L18.2116 20.6947L19.2863 19.2217ZM19.2864 19.2214L20.7941 20.2469L21.7863 18.7881L20.361 17.7484L19.2864 19.2214ZM11.519 12.2385C10.5794 13.5266 10.8618 15.3325 12.1499 16.2722L14.2991 13.3261C14.6381 13.5734 14.7124 14.0487 14.4651 14.3877L11.519 12.2385ZM15.5527 11.6077C14.2647 10.668 12.4587 10.9504 11.519 12.2385L14.4651 14.3877C14.2178 14.7267 13.7425 14.801 13.4035 14.5537L15.5527 11.6077ZM21.097 15.6523L15.5527 11.6077L13.4035 14.5537L18.9478 18.5984L21.097 15.6523ZM21.1164 15.6667L21.1089 15.661L18.9359 18.5897L18.9435 18.5953L21.1164 15.6667ZM22.118 16.3973L21.1046 15.6579L18.9554 18.604L19.9688 19.3433L22.118 16.3973ZM20.3705 16.6706C20.7776 16.1125 21.56 15.9902 22.118 16.3973L19.9688 19.3433C21.0378 20.1232 22.5367 19.8888 23.3166 18.8198L20.3705 16.6706ZM20.5509 18.3431C20.0734 17.919 19.987 17.1964 20.3705 16.6706L23.3166 18.8198C24.0509 17.8133 23.8861 16.428 22.9727 15.6167L20.5509 18.3431ZM20.9003 15.3729L20.8979 15.3742L22.6256 18.5856L22.628 18.5844L20.9003 15.3729ZM20.6566 18.4276L20.6896 18.4517L22.8388 15.5056L22.8059 15.4816L20.6566 18.4276ZM20.6237 18.4032L20.6365 18.4128L22.8259 15.4964L22.8131 15.4868L20.6237 18.4032ZM19.6304 17.6787L20.6438 18.418L22.7931 15.472L21.7796 14.7326L19.6304 17.6787ZM19.6376 17.684L19.6507 17.6933L21.7593 14.718L21.7463 14.7088L19.6376 17.684ZM15.8851 14.9467L19.6173 17.6695L21.7666 14.7234L18.0343 12.0006L15.8851 14.9467ZM15.2543 10.913C14.3146 12.2011 14.597 14.007 15.8851 14.9467L18.0343 12.0006C18.3733 12.248 18.4477 12.7233 18.2004 13.0623L15.2543 10.913ZM19.288 10.2822C17.9999 9.34253 16.194 9.62496 15.2543 10.913L18.2004 13.0623C17.953 13.4013 17.4777 13.4756 17.1387 13.2283L19.288 10.2822ZM25.3465 14.702L19.288 10.2822L17.1387 13.2283L23.1972 17.6481L25.3465 14.702ZM22.7989 15.1003L22.7988 15.1004L25.7449 17.2497L25.745 17.2495L22.7989 15.1003ZM22.8211 16.6899C22.7369 16.4923 22.5855 15.9977 22.8261 15.4146C23.0701 14.8235 23.5419 14.563 23.8016 14.4661C24.0549 14.3717 24.2712 14.362 24.4051 14.3669C24.4803 14.3696 24.5743 14.3786 24.6825 14.4019C24.7339 14.413 25.0085 14.4692 25.3029 14.671L23.241 17.6788C23.5458 17.8878 23.8384 17.9504 23.913 17.9665C24.0444 17.9949 24.1667 18.0074 24.2731 18.0112C24.4691 18.0183 24.7584 18.0014 25.0757 17.883C25.3995 17.7623 25.9265 17.4613 26.197 16.806C26.4641 16.1587 26.3105 15.5762 26.1758 15.26L22.8211 16.6899ZM22.523 11.2022C22.3103 11.6183 21.988 12.3558 21.9553 13.3783C21.9226 14.4034 22.1848 15.5714 22.9064 16.8638L26.0904 15.0861C25.6502 14.2977 25.5911 13.7786 25.6002 13.4947C25.6093 13.2082 25.6919 13.0149 25.7699 12.8625L22.523 11.2022ZM25.92 9.27563C25.0932 9.1485 24.3517 9.45377 23.8754 9.74895C23.3571 10.0701 22.8509 10.5611 22.523 11.2022L25.7699 12.8625C25.759 12.8838 25.7542 12.8855 25.7644 12.8749C25.7745 12.8643 25.7872 12.8544 25.7963 12.8487C25.8074 12.8418 25.7929 12.8535 25.7437 12.8672C25.7017 12.8789 25.5667 12.9109 25.3658 12.88L25.92 9.27563ZM27.7595 11.0892C27.6632 10.4459 27.2841 10.0279 27.0776 9.83893C26.8404 9.62195 26.4485 9.3569 25.92 9.27563L25.3658 12.88C24.9801 12.8207 24.7363 12.6395 24.6158 12.5293C24.5418 12.4616 24.4582 12.3697 24.3804 12.2471C24.3092 12.1347 24.1972 11.9248 24.1529 11.629L27.7595 11.0892ZM30.1879 16.1767C28.742 14.8011 28.0519 13.0426 27.7595 11.0892L24.1529 11.629C24.5227 14.0992 25.4604 16.7125 27.6744 18.8188L30.1879 16.1767ZM30.8542 16.9501C30.6642 16.6641 30.4297 16.4067 30.1879 16.1767L27.6744 18.8188C27.7318 18.8734 27.7704 18.9145 27.7948 18.9423C27.8195 18.9706 27.8239 18.9789 27.8163 18.9676L30.8542 16.9501ZM31.1232 27.553C33.5814 24.1834 33.4173 19.59 30.6532 16.6988L28.0173 19.2189C29.4571 20.7249 29.6863 23.3351 28.1772 25.4038L31.1232 27.553ZM19.7248 29.8918C23.4405 32.3761 28.4548 31.2109 31.1232 27.553L28.1772 25.4038C26.5292 27.6628 23.6611 28.1369 21.7517 26.8603L19.7248 29.8918ZM19.641 29.8388C19.8536 29.9939 20.092 30.0997 20.3391 30.1552L21.1374 26.5969C21.3686 26.6488 21.5916 26.7478 21.7902 26.8927L19.641 29.8388ZM17.5096 28.2839L19.641 29.8388L21.7902 26.8927L19.6588 25.3378L17.5096 28.2839ZM17.5083 28.283L17.5163 28.2888L19.6521 25.3329L19.6441 25.3272L17.5083 28.283ZM11.1566 23.6493L17.5016 28.2781L19.6508 25.332L13.3058 20.7032L11.1566 23.6493ZM10.5258 19.6156C9.5861 20.9037 9.86852 22.7096 11.1566 23.6493L13.3058 20.7032C13.6448 20.9505 13.7192 21.4258 13.4718 21.7648L10.5258 19.6156ZM14.5595 18.9848C13.2714 18.0451 11.4654 18.3275 10.5258 19.6156L13.4718 21.7648C13.2245 22.1038 12.7492 22.1782 12.4102 21.9309L14.5595 18.9848ZM19.1499 22.3336L14.5595 18.9848L12.4102 21.9309L17.0006 25.2797L19.1499 22.3336ZM16.2615 23.9932C16.2602 23.9805 16.2592 23.97 16.2587 23.9634C16.2584 23.9601 16.2581 23.9574 16.258 23.9557C16.2579 23.9542 16.2578 23.9529 16.2578 23.9531C16.2578 23.9531 16.2578 23.9531 16.2578 23.9531C16.2578 23.9531 16.2578 23.9531 16.2578 23.9531C16.2578 23.9531 16.2578 23.9531 16.2578 23.9531C16.2578 23.9531 16.2578 23.9532 16.2578 23.9532C16.2578 23.9532 16.2578 23.9532 16.2578 23.9533C16.2578 23.9534 16.2578 23.9536 16.2578 23.9538C16.2579 23.9542 16.2579 23.9549 16.258 23.9557C16.2581 23.9574 16.2584 23.9601 16.2587 23.9634C16.2592 23.9701 16.2602 23.9805 16.2615 23.9933L19.889 23.62C19.8904 23.6328 19.8913 23.6432 19.8919 23.6498C19.8922 23.6532 19.8924 23.6559 19.8925 23.6575C19.8926 23.659 19.8927 23.6603 19.8927 23.6601C19.8927 23.6601 19.8927 23.6601 19.8927 23.6601C19.8927 23.6601 19.8927 23.6601 19.8927 23.6601C19.8927 23.6601 19.8927 23.6601 19.8927 23.6601C19.8927 23.6601 19.8927 23.6601 19.8927 23.6601C19.8927 23.66 19.8927 23.66 19.8927 23.6599C19.8927 23.6598 19.8927 23.6597 19.8927 23.6594C19.8926 23.659 19.8926 23.6583 19.8925 23.6575C19.8924 23.6558 19.8922 23.6531 19.8919 23.6498C19.8913 23.6432 19.8904 23.6327 19.889 23.6199L16.2615 23.9932ZM19.2301 22.3921L19.1499 22.3336L17.0006 25.2796L17.0809 25.3381L19.2301 22.3921ZM17.4826 22.6654C17.8897 22.1073 18.6721 21.985 19.2301 22.3921L17.0809 25.3381C18.1499 26.118 19.6488 25.8836 20.4287 24.8146L17.4826 22.6654ZM17.7559 24.4128C17.1979 24.0057 17.0755 23.2234 17.4826 22.6654L20.4287 24.8146C21.2086 23.7455 20.9742 22.2467 19.9051 21.4668L17.7559 24.4128ZM16.5221 23.5128L17.7559 24.4128L19.9051 21.4668L18.6714 20.5667L16.5221 23.5128ZM16.5354 23.5224C16.531 23.5192 16.5266 23.516 16.5221 23.5128L18.6714 20.5667C18.6628 20.5604 18.6541 20.5542 18.6455 20.5481L16.5354 23.5224ZM10.9703 19.4626L16.5159 23.5083L18.6651 20.5622L13.1195 16.5166L10.9703 19.4626ZM10.3394 15.429C9.39977 16.717 9.6822 18.523 10.9703 19.4626L13.1195 16.5166C13.4585 16.7639 13.5328 17.2392 13.2855 17.5782L10.3394 15.429ZM14.3731 14.7981C13.0851 13.8585 11.2791 14.1409 10.3394 15.429L13.2855 17.5782C13.0382 17.9172 12.5629 17.9915 12.2239 17.7442L14.3731 14.7981ZM19.477 18.5215L14.3731 14.7981L12.2239 17.7442L17.3277 21.4676L19.477 18.5215ZM19.4959 18.5355L19.4885 18.53L17.3162 21.4591L17.3236 21.4645L19.4959 18.5355ZM20.0572 18.9449L19.4844 18.527L17.3351 21.4731L17.9079 21.8909L20.0572 18.9449ZM18.3097 19.2181C18.7168 18.6601 19.4992 18.5378 20.0572 18.9449L17.9079 21.8909C18.977 22.6708 20.4759 22.4364 21.2558 21.3674L18.3097 19.2181ZM18.583 20.9656C18.025 20.5585 17.9026 19.7762 18.3097 19.2181L21.2558 21.3674C22.0357 20.2983 21.8013 18.7994 20.7322 18.0195L18.583 20.9656ZM18.2116 20.6947L18.583 20.9656L20.7322 18.0195L20.3609 17.7486L18.2116 20.6947ZM17.7787 18.196L17.7786 18.1962L20.7939 20.2471L20.7941 20.2469L17.7787 18.196ZM12.1499 16.2722L18.2118 20.6945L20.361 17.7484L14.2991 13.3261L12.1499 16.2722Z" fill="#222831" mask="url(#path-5-outside-2_30890_10074)"/>
<path fill-rule="evenodd" clip-rule="evenodd" d="M5.63315 6.45257C5.59732 6.51464 5.5152 6.53125 5.45806 6.488L2.82572 4.49537C2.72831 4.42163 2.59626 4.52481 2.64425 4.63716L4.53776 9.06999C4.57633 9.16028 4.70142 9.16779 4.75051 9.08276L5.63106 7.5576C5.66689 7.49554 5.74901 7.47892 5.80615 7.52217L8.43849 9.5148C8.5359 9.58854 8.66795 9.48536 8.61996 9.37301L6.72645 4.94018C6.68788 4.84989 6.56279 4.84239 6.5137 4.92741L5.63315 6.45257Z" fill="#222831"/>
<path fill-rule="evenodd" clip-rule="evenodd" d="M12.5039 3.2845C12.4222 3.33162 12.3178 3.29655 12.2812 3.20972L11.2751 0.825167C11.2127 0.677133 10.9944 0.707814 10.9752 0.867329L10.5143 4.69283C10.4989 4.82101 10.6364 4.91181 10.7482 4.84726L11.9195 4.17101C12.0011 4.12389 12.1056 4.15897 12.1422 4.2458L13.1482 6.63035C13.2107 6.77838 13.4289 6.7477 13.4481 6.58818L13.909 2.76269C13.9245 2.6345 13.787 2.5437 13.6751 2.60826L12.5039 3.2845Z" fill="#222831"/>
<path fill-rule="evenodd" clip-rule="evenodd" d="M2.92075 14.4933C2.92075 14.5876 2.83815 14.6605 2.74464 14.6488L0.17662 14.3278C0.0171916 14.3079 -0.0653575 14.5122 0.0631778 14.6086L3.14571 16.9205C3.249 16.998 3.3964 16.9243 3.3964 16.7952L3.3964 15.4426C3.3964 15.3484 3.47899 15.2755 3.57251 15.2872L6.14053 15.6082C6.29995 15.6281 6.3825 15.4238 6.25397 15.3274L3.17144 13.0155C3.06815 12.938 2.92075 13.0117 2.92075 13.1408L2.92075 14.4933Z" fill="#222831"/>
</svg>
